<?xml version="1.0" encoding="UTF-8"?>
<svg id="Capa_2" data-name="Capa 2" xmlns="http://www.w3.org/2000/svg" viewBox="0 0 453.21 88.74">
  <defs>
    <style>
      .cls-1 {
        fill: #fff;
      }
    </style>
  </defs>
  <g id="Capa_1-2" data-name="Capa 1">
    <g>
      <path d="m156.84,26.43v4.58c4.73,1.3,9.31,2.62,13.92,3.78.69.17,1.6-.27,2.35-.58,11.73-4.86,24.41-2.53,32.67,6.5,2.48,2.72,4.47,6.11,5.88,9.52,2.1,5.06,1.03,9.76-3.04,12.79,1.16,2.48,3.01,4.7,2.99,6.9-.03,2.41-1.35,5.13-2.86,7.15-6.56,8.77-15.68,12.36-26.41,11.27-12.17-1.24-20.73-7.54-24.78-19.34-.08-.22-.28-.4-.84-1.17,0,3.92,0,7.26,0,10.59,0,6.52-2.29,8.97-8.77,8.81-3.55-.09-7.08-.73-10.63-1.05-.55-.05-1.15.24-1.69.45-5.02,1.93-10.02,2.04-15.08.11-.86-.33-2.01-.44-2.86-.16-11.21,3.68-21.33,1.93-30.3-5.83-.32-.28-.66-.54-.53-.44-5.98,2.26-11.48,4.99-17.31,6.4-14.53,3.5-28.37,1.78-40.56-7.55-6.96-5.33-12.13-12.08-14.77-20.53-.46-1.48-1.15-2.03-2.71-1.92C1.49,57.38-.44,54.32.07,45.15c.07-1.28,0-2.57.07-3.85.25-4.57,2.77-6.98,7.41-7.09,1.72-.04,3.43,0,5.42,0,.32-1.09.62-2.21.98-3.31C19.48,14.09,30.6,3.29,48.37.5c15.72-2.46,30.93,5.16,36.61,16.92,8.06,16.7-2.4,33.62-20.2,35.2-1.62.14-3.41.44-4.87-.06-3.95-1.34-7.16.21-10.67,1.65-3.36,1.37-7.05,1.92-11.17,2.98,1.88,1.68,3.53,3.47,5.47,4.85,11.17,7.98,26.6,3.42,34.57-4.2.78-.75.86-2.33,1.06-3.56,2.01-12.36,13.71-22.43,26.26-22.76,10.12-.26,18.63,2.84,24.52,11.37,1.66,2.41,2.63,5.29,4,8.12.06-.61.16-1.21.16-1.81,0-9.34-.03-18.68,0-28.02.03-10.5,6.62-18.61,16.8-20.76,12.1-2.55,23.85,6.23,24.56,18.36.27,4.63-2.34,7.54-6.97,7.62-3.84.07-7.68.01-11.64.01Zm-25.26,39.69c0-3.69.05-6.65-.01-9.6-.13-6.08-2.14-11.48-6.64-15.65-7.92-7.34-17.28-8.63-27.12-5.07-9.61,3.49-14.96,10.8-16.53,20.87-.15.95-.42,2.11-1.06,2.74-8.16,7.91-23.31,12.7-35.3,6.49-4.96-2.57-8.88-6.22-11.15-11.72,6.86.06,13.21-.8,18.88-4.33,1.29-.8,2.31-.88,3.79-.49,15.86,4.17,32.12-8.17,28.02-25.73-2.28-9.75-9.15-15.45-18.13-18.8C48.92-1.65,29.12,6.16,19.99,23.2c-2.23,4.17-3.59,8.81-5.5,13.61-2.06,0-4.63-.07-7.19.02-2.9.1-4.46,1.62-4.58,4.48-.11,2.65-.09,5.31-.04,7.97.07,3.32,1.63,4.82,4.96,4.85,2.64.03,5.29,0,7.68,0,.88,2.43,1.52,4.58,2.42,6.6.94,2.1,1.98,4.19,3.24,6.12,10.52,16.1,30.41,22.92,50.02,16.83,5.5-1.71,10.68-4.45,16.12-6.76,8.59,8.84,18.98,11.27,30.97,6.63.49-.19,1.21-.23,1.66-.01,5.95,2.87,11.79,2.55,16.53-.03,2.85.53,4.78,1.01,6.73,1.21,1.7.17,3.44.04,5.16.03,4.48-.03,5.87-1.37,5.89-5.83.02-8.23-.01-16.45-.02-24.68,0-.98,0-1.96,0-3.22,2.24.29,4,.51,5.89.75-.13.93-.17,1.6-.31,2.26-3.43,16.51,6.1,29.78,22.92,31.87,9.85,1.23,20.59-3.99,25.5-12.39,2.07-3.54,1.44-5.92-2.1-7.88-1.23-.68-2.48-1.33-4.03-2.16.68-.33.96-.48,1.25-.61,7.15-3.27,8.58-7.29,5.1-14.36-6.22-12.63-21.46-17.71-34.9-11.65-.82.37-1.84.89-2.6.7-5.44-1.34-10.85-2.85-16.34-4.33v-13.83c.69.61,1.07.78,1.14,1.04.83,2.99,2.98,3.66,5.77,3.49,2.14-.13,4.3,0,6.45-.02,3.79-.02,5.35-1.69,5.07-5.42-.79-10.39-11-17.67-21.71-15.47-8.69,1.78-14.3,8.79-14.36,18.2-.08,11.82-.08,23.65.03,35.47.04,3.95-2.28,6.35-5.22,9.43Z"/>
      <path d="m448.38,57.39c4.37,1.88,5.3,5.36,4.63,9.41-2.49,15.2-15.11,23.45-29.91,21.62-7.07-.88-13.07-3.93-17.83-9.15-2.37,2.06-4.44,4.27-6.9,5.91-5.79,3.87-12.02,4.65-18.65,2.06-1.13-.44-2.67-.44-3.85-.08-11.83,3.6-25.02-.74-32.08-10.66-1.78-2.5-4.38-2.55-6.31.01-3.22,4.27-7.17,7.56-12.12,9.68-7.01,2.99-14.15,3.26-21.4,1.09-4.43-1.33-7.54-4.25-9.68-8.63-2.47,4.58-5.92,7.66-10.74,8.93-12.47,3.29-22.71-4.47-22.79-17.4-.1-14.65-.02-29.31.04-43.96,0-2.09.02-3.55-2.75-4.14-2.8-.6-4.27-3.05-4.32-6.01-.06-3.17-.09-6.34.01-9.51.11-3.58,2.83-6.22,6.44-6.38,8.14-.34,14.8,2.41,19.5,9.26.14.21.25.45.45.81,4.51-4.41,9.41-7.45,15.41-8.75,19.77-4.3,39.01,11.41,38.31,31.54-.1,2.88.24,5.07,2.5,7.22,2.04,1.94,3.28,4.71,5.01,7.3,5.86-10.48,14.65-16.4,27.02-16,12.43.4,20.66,6.75,25.03,18.3,1.15-1.92.53-3.2-.76-4.79-3.97-4.91-6.05-10.51-4.76-16.93,1.72-8.57,9.59-12.78,17.85-9.54,5.75,2.26,9.36,6.57,11.11,12.34.57,1.89,1.35,2.35,3.18,2.31,4.99-.11,9.98-.08,14.97-.01,11.93.15,19.04,11.32,14.21,22.26-.24.54-.47,1.09-.83,1.92ZM279.78,15.33c-3.52-8.64-9.77-12.81-18.89-12.6-3.01.07-4.46,1.42-4.57,4.39-.1,2.91-.08,5.83,0,8.74.07,2.47,1.53,4.1,4.04,4.06,2.53-.05,2.97,1.03,2.96,3.25-.08,15.25-.07,30.5-.05,45.75,0,1.54.1,3.09.32,4.61.91,6.49,5.75,11.17,12.31,11.99,7.46.92,13.55-2.16,15.97-8.45.84-2.18,1.19-4.65,1.24-7,.15-7.48.06-14.97.06-23.16,2.59,4.63,6.39,6.17,10.62,6.2,3.73.03,7.53-.49,11.19-1.28,4.44-.95,6.38-.02,7.74,4.33-4.46,1.03-9,1.82-13.38,3.16-4.34,1.33-8.08,3.81-10.67,7.68-4.58,6.84-2.23,14.67,5.23,17.54,10.3,3.96,23.37.63,30.13-8.06,2.04-2.62,4.13-4.19,7.46-4.58,1.72-.2,2.51,0,3.45,1.51,5.87,9.53,16.47,14.02,27.51,11.85,4.13-.81,6.52-.72,10.62.32,1.07.27,2.19.46,3.3.51,6.91.29,11.92-3.19,16.16-8.16.92-1.07,1.76-2.22,2.46-3.12,2.04,2.12,3.71,4.36,5.86,5.99,6.96,5.29,14.86,6.46,23.23,4.34,8.92-2.26,15.78-10.56,16.48-19.64.29-3.81-1.34-5.61-5.14-5.67-.77-.01-1.54,0-2.76,0,5.28-5.15,6.73-11,4.29-16.57-2.55-5.83-7.44-7.62-13.43-7.52-5.16.09-10.33-.07-15.49.03-1.87.04-2.77-.53-3.16-2.42-.98-4.84-3.52-8.72-7.79-11.32-3.67-2.24-7.6-2.83-11.53-.76-3.89,2.06-5.33,5.64-5.4,9.85-.08,5.15,1.9,9.48,5.35,13.24.6.66,1.46,1.57,1.38,2.28-.66,5.83-2.27,11.39-5.3,16.52-.28-2.94-.06-5.87-.32-8.75-.71-8.06-4.87-14.02-12.01-17.69-13.94-7.17-31.1-.25-36.45,14.49-.42,1.16-1.25,2.17-1.9,3.24-.24-.07-.47-.13-.71-.2-1.13-6.13-3.91-11.28-8.68-15.33-.47-.39-.56-1.52-.45-2.25,3.3-21.55-16.96-36.86-35.42-32.59-6.73,1.56-11.97,5.33-15.87,11.23Zm16.17,39.05v12.14c3.64-5.63,8.66-8.26,13.73-10.27-4.54-.62-9.16-1.25-13.73-1.87Z"/>
      <path d="m168.52,19.73c-2.64,0-5.13.08-7.6-.06-.56-.03-1.25-.69-1.6-1.23-1.33-2.12-3.15-3.22-5.63-2.59-2.44.62-3.75,2.32-3.76,4.89-.01,5.89,0,11.78,0,17.88,7.42-.92,14.24.29,20.74,3.46.67.32,1.94-.17,2.75-.61,11.17-6.06,23.91-2.9,30.46,7.64.63,1.01,1.17,2.1,1.56,3.22,1.14,3.26.39,5.01-2.86,6.28-7.76,3.03-15.56,5.95-23.34,8.93-1.1.42-2.18.87-3.32,1.33,5.42,6.5,13.46,5.28,21.18-3.16,2.59,1.36,5.21,2.73,7.81,4.1-3.17,9.2-16.61,14.45-27.19,10.94-11.17-3.7-18.64-16.03-12.41-30.97-4.52-2.87-9.46-3.07-14.52-2.15-.43.08-.87,1.48-.88,2.27-.06,9.08-.03,18.17-.02,27.25,0,1.01,0,2.02,0,3.2h-8.92v-5.73c-1.71,1.44-3,2.63-4.4,3.69-4.97,3.75-10.83,3.97-16.15.79-.6-.36-1.72-.58-2.21-.26-8.68,5.71-24.1,2.98-30.03-7.66-.12-.21-.32-.38-.3-.35-4.17,2.36-8.08,5.05-12.37,6.89-10.28,4.41-20.96,5.54-31.69,1.78-13.17-4.63-21.49-13.77-24.38-27.5-.34-1.63-.93-2.11-2.5-2.07-3.25.09-6.5.03-9.9.03v-8.9h11.73c.81-7.45,3.09-14.06,7.39-19.96,10.5-14.38,29.85-18.57,44.47-9.56,7.94,4.89,11.81,13.09,9.97,21.12-2.3,10.09-14.53,16.26-24.53,12.23-1.77-.71-2.87-.55-4.34.56-4.42,3.37-9.62,4.39-15.05,4.5-2.74.06-5.48,0-8.48,0,.92,4.71,2.63,8.71,5.56,12.18,8.41,9.96,21.62,13.31,34.99,8.84,5.29-1.77,9.94-4.61,14.1-8.32,1.69-1.5,2.55-3.11,2.66-5.5.41-8.87,8.04-16.8,17.58-18.63,9.61-1.84,18.95,2.44,22.67,10.7,1.02,2.27,1.44,4.92,1.62,7.43.26,3.67-.06,7.37.11,11.05.05,1.13.66,2.74,1.51,3.19.86.46,2.66.16,3.5-.51,4.78-3.79,8.76-7.86,8.52-14.85-.39-11.56-.17-23.14-.06-34.7.06-7.02,4.1-12,10.69-13.62,8.5-2.09,17.01,4.04,16.86,12.54Zm-116.04,12.59c1.81,1.43,3.34,2.98,5.16,4.01,4.08,2.31,9.85.91,12.77-2.85,2.62-3.37,2.2-7.62-1.29-11.37-1.15-1.24-2.48-2.41-3.94-3.26-7.83-4.53-15.83-4.36-23.51.11-8.27,4.81-12.84,12.21-13.91,21.88,9.72.62,18.98.73,24.72-8.52Zm65.98,28.31c.24-4.39.04-8.34-3.65-11.18-5.05-3.88-12.35-3.28-17.1,1.49-4.28,4.31-4.73,11.93-.98,16.73,4.07,5.21,11.54,6.84,16.84,3.65,4.19-2.52,5.54-6.31,4.89-10.69Zm53.59.21c3.9-1.54,7.56-3,11.22-4.44,3.71-1.47,7.43-2.92,11.23-4.41-3.47-4.4-9.15-5.84-14.35-3.85-5.17,1.98-8.56,7.15-8.09,12.71Z"/>
      <path d="m260.58,15.67V7.12c8.33-1.15,15.49,4.87,15.57,13.21.12,12.94.05,25.88.07,38.82,0,3.34-.02,6.68.01,10.03.01,1.55-.05,3.46,2.12,3.42,2.03-.05,1.84-1.89,1.85-3.34,0-13.62-.06-27.25.03-40.87.06-9.63,6.2-17.45,15.5-20.05,16.94-4.74,34.25,10.25,31.13,27.4-.67,3.66.23,5.15,2.75,7.18,4.42,3.55,6.26,8.42,6.99,16.25,4.2.58,8.33-2,10.12-6.51,1.58-4,3.96-7.38,7.3-10.09,9.41-7.63,28.91-5.92,32.69,9.58.32,1.32.47,2.71.48,4.07.05,4.28-.06,8.57.03,12.85.03,1.36.52,2.71.8,4.07,1.31-.82,2.95-1.37,3.87-2.5,4.66-5.71,6.99-12.49,8.52-19.59.05-.25.04-.52.12-.76,1.25-3.67.9-6.62-2.42-9.43-3.02-2.56-4.16-6.44-3.84-10.51.37-4.67,4.15-7.15,8.6-5.58,4.35,1.53,6.74,4.8,7.89,9.13,1.5,5.61,1.99,5.97,7.75,5.98,5.42,0,10.84-.07,16.26.03,7.09.13,11.04,6.23,8.32,12.75-1.01,2.43-2.81,4.06-5.41,4.74-3.83.99-7.74,1.73-11.44,3.06-2.68.96-5.36,2.37-7.53,4.18-2.52,2.11-2.13,4.41.41,6.49,6.44,5.26,15.74,2.24,17.69-5.74.1-.41.26-.81.39-1.22h9.01c.32,6.64-4.31,13.84-11.03,16.27-7.72,2.78-15.28,2.18-22-2.95-7.77-5.93-7.12-17.43,1.66-21.75,5.14-2.53,11.07-3.46,16.64-5.12,1.04-.31,2.05-.7,3.08-1.06-.06-.33-.12-.66-.18-.99h-24.32c-.55,2.4-1.11,5.31-1.87,8.16-2.02,7.51-4.84,14.63-10.45,20.33-3.74,3.8-8.11,5.87-13.48,4.48-2-.52-3.8-1.78-6.04-2.87-5.65,3.67-12.2,3.93-18.83,1.65-6.78-2.34-10.95-7.42-13.21-13.69-3.73.71-7.19,1.3-10.61,2.06-.7.15-1.49.76-1.88,1.39-5.92,9.45-14.46,13.35-25.48,11.43-3.36-.58-6.39-1.91-7.42-5.51-1.01-3.53.55-6.41,3.12-8.7,5.15-4.59,11.56-5.76,18.15-6.36.34-.03.69-.02,1.03-.03,4.81-.09,5.12-.48,3.99-5.17-.82-3.43-2.87-6.14-5.8-7.87-1.35-.8-3.45-.67-5.15-.49-3.9.43-7.75,1.34-11.66,1.67-1.61.13-3.43-.46-4.92-1.2-2.89-1.44-3.18-3.65-.96-6.02,3.34-3.57,7.56-5.24,12.4-5.5.69-.04,1.38-.03,2.06-.04,4.72-.11,5.76-1.31,5.2-6-1.09-9.14-11.79-15.99-20.6-13.19-5.47,1.74-8.59,6.4-8.61,12.93-.03,13.54.02,27.08-.06,40.62-.04,8.19-6.15,12.63-14.13,10.46-3.98-1.09-6.3-3.69-7.08-7.65-.26-1.33-.32-2.72-.32-4.09-.01-15.34,0-30.68.02-46.02,0-5.55-1.17-6.89-6.9-7.62Zm117.9,44.49c-.07,0-.13-.01-.2-.02,0-.94.01-1.88,0-2.82-.07-5.05-3.21-8.98-8.13-10.17-6.75-1.64-14.37,3.44-15.57,10.39-1.26,7.29,3.69,14.27,10.77,15.16,5.94.75,10.79-1.78,12.4-6.75.59-1.82.5-3.86.73-5.79Zm-56.34,9.46c-4,.12-7.96.41-11.6,3.52,4.8.55,8.45-.66,11.6-3.52Z"/>
      <path d="m293.18,42.47c0-4.89-.11-9.07.03-13.24.19-5.87,4.23-9.2,10.09-8.55,5.56.62,10.63,5.77,10.78,11.23-8.33.22-15.89,2.23-20.9,10.56Zm17.52-13.66c-2.35-4.41-7.64-6.81-11.53-5.02-3.15,1.45-4.53,6.56-3.1,10.25,4.86-1.74,9.71-3.47,14.62-5.23Z"/>
      <path d="m421.4,66.73c3.68-1.34,7.37-2.67,11.42-4.14-.09,2.87-.43,5.07-2.78,6.08-2.91,1.24-5.77.92-8.4-.77-.08-.39-.16-.78-.23-1.17Z"/>
      <path class="cls-1" d="m322.14,69.62c-3.14,2.86-6.79,4.07-11.6,3.52,3.64-3.11,7.59-3.4,11.6-3.52Z"/>
      <path d="m32.98,36.58c1.86-9.95,15.27-21.49,28.72-14.9,1.51.74,2.92,1.82,4.14,3,2.49,2.41,2.73,4.51,1.01,6.52-1.97,2.3-5.57,2.89-7.91,1.15-1.01-.75-1.8-1.82-2.67-2.75-2.3-2.47-5.21-2.33-7.24.36-4.41,5.84-8.7,7.62-16.04,6.63Zm3.65-2.46c4.67.1,7.73-1.88,10.03-5.27,3.16-4.66,8.2-4.94,11.84-.68.5.58.94,1.25,1.53,1.71,1.57,1.22,3.25,1.21,4.62-.24,1.56-1.66-.12-2.73-1.11-3.55-3.91-3.24-8.4-4.52-13.45-3.26-6.2,1.54-10.53,5.28-13.46,11.29Z"/>
      <path d="m114.36,60.64c.19,2.47.24,5.45-3.05,7.2-3.1,1.65-7.73.99-10.28-1.56-2.84-2.83-3.54-7.01-1.73-10.37,1.88-3.49,5.59-5.33,9.49-4.72,3.5.55,5.53,2.93,5.57,6.54,0,.77,0,1.54,0,2.9Zm-2.65.23c0-1.67.24-2.77-.06-3.69-.34-1.05-.95-2.25-1.82-2.83-2.09-1.4-5.14-.64-7.2,1.47-1.94,1.99-2.22,4.85-.72,7.27,1.51,2.44,4.42,3.67,7.08,2.92,3.13-.88,2.9-3.34,2.73-5.14Z"/>
      <path d="m374.14,59.51c.08,3.08.3,5.76-2.16,7.69-2.94,2.3-7.94,1.91-10.85-.92-2.74-2.66-3.34-6.83-1.51-10.41,1.77-3.45,5.73-5.41,9.46-4.67,2.96.58,4.95,2.89,5.06,5.92.03.94,0,1.88,0,2.39Zm-2.62.63c0-.94,0-1.88,0-2.82.02-2.07-1.26-3.15-3.06-3.56-3.19-.74-6.79,2.03-7.22,5.4-.46,3.65,2.15,6.83,5.8,7.06,3.3.21,4.47-1.38,4.47-6.07Z"/>
    </g>
  </g>
</svg>