<?xml version="1.0" encoding="UTF-8"?>
<svg id="Capa_2" data-name="Capa 2" xmlns="http://www.w3.org/2000/svg" viewBox="0 0 439.19 75.26">
  <defs>
    <style>
      .cls-1 {
        fill: #fff;
      }
    </style>
  </defs>
  <g id="Capa_1-2" data-name="Capa 1">
    <path d="m161.49,12.96c-2.64,0-5.13.08-7.6-.06-.56-.03-1.25-.69-1.6-1.23-1.33-2.12-3.15-3.22-5.63-2.59-2.44.62-3.75,2.32-3.76,4.89-.01,5.89,0,11.78,0,17.88,7.42-.92,14.24.29,20.74,3.46.67.32,1.94-.17,2.75-.61,11.17-6.06,23.91-2.9,30.46,7.64.63,1.01,1.17,2.1,1.56,3.22,1.14,3.26.39,5.01-2.86,6.28-7.76,3.03-15.56,5.95-23.34,8.93-1.1.42-2.18.87-3.32,1.33,5.42,6.5,13.46,5.28,21.18-3.16,2.59,1.36,5.21,2.73,7.81,4.1-3.17,9.2-16.61,14.45-27.19,10.94-11.17-3.7-18.64-16.03-12.41-30.97-4.52-2.87-9.46-3.07-14.52-2.15-.43.08-.87,1.48-.88,2.27-.06,9.08-.03,18.17-.02,27.25,0,1.01,0,2.02,0,3.2h-8.92v-5.73c-1.71,1.44-3,2.63-4.4,3.69-4.97,3.75-10.83,3.97-16.15.79-.6-.36-1.72-.58-2.21-.26-8.68,5.71-24.1,2.98-30.03-7.66-.12-.21-.32-.38-.3-.35-4.17,2.36-8.08,5.05-12.37,6.89-10.28,4.41-20.96,5.54-31.69,1.78-13.17-4.63-21.49-13.77-24.38-27.5-.34-1.63-.93-2.11-2.5-2.07-3.25.09-6.5.03-9.9.03v-8.9h11.73c.81-7.45,3.09-14.06,7.39-19.96C29.62-.08,48.97-4.27,63.59,4.74c7.94,4.89,11.81,13.09,9.97,21.12-2.3,10.09-14.53,16.26-24.53,12.23-1.77-.71-2.87-.55-4.34.56-4.42,3.37-9.62,4.39-15.05,4.5-2.74.06-5.48,0-8.48,0,.92,4.71,2.63,8.71,5.56,12.18,8.41,9.96,21.62,13.31,34.99,8.84,5.29-1.77,9.94-4.61,14.1-8.32,1.69-1.5,2.55-3.11,2.66-5.5.41-8.87,8.04-16.8,17.58-18.63,9.61-1.84,18.95,2.44,22.67,10.7,1.02,2.27,1.44,4.92,1.62,7.43.26,3.67-.06,7.37.11,11.05.05,1.13.66,2.74,1.51,3.19.86.46,2.66.16,3.5-.51,4.78-3.79,8.76-7.86,8.52-14.85-.39-11.56-.17-23.14-.06-34.7.06-7.02,4.1-12,10.69-13.62,8.5-2.09,17.01,4.04,16.86,12.54Zm-116.04,12.59c1.81,1.43,3.34,2.98,5.16,4.01,4.08,2.31,9.85.91,12.77-2.85,2.62-3.37,2.2-7.62-1.29-11.37-1.15-1.24-2.48-2.41-3.94-3.26-7.83-4.53-15.83-4.36-23.51.11-8.27,4.81-12.84,12.21-13.91,21.88,9.72.62,18.98.73,24.72-8.52Zm65.98,28.31c.24-4.39.04-8.34-3.65-11.18-5.05-3.88-12.35-3.28-17.1,1.49-4.28,4.31-4.73,11.93-.98,16.73,4.07,5.21,11.54,6.84,16.84,3.65,4.19-2.52,5.54-6.31,4.89-10.69Zm53.59.21c3.9-1.54,7.56-3,11.22-4.44,3.71-1.47,7.43-2.92,11.23-4.41-3.47-4.4-9.15-5.84-14.35-3.85-5.17,1.98-8.56,7.15-8.09,12.71Z"/>
    <path d="m253.54,8.91V.36c8.33-1.15,15.49,4.87,15.57,13.21.12,12.94.05,25.88.07,38.82,0,3.34-.02,6.68.01,10.03.01,1.55-.05,3.46,2.12,3.42,2.03-.05,1.84-1.89,1.85-3.34,0-13.62-.06-27.25.03-40.87.06-9.63,6.2-17.45,15.5-20.05,16.94-4.74,34.25,10.25,31.13,27.4-.67,3.66.23,5.15,2.75,7.18,4.42,3.55,6.26,8.42,6.99,16.25,4.2.58,8.33-2,10.12-6.51,1.58-4,3.96-7.38,7.3-10.09,9.41-7.63,28.91-5.92,32.69,9.58.32,1.32.47,2.71.48,4.07.05,4.28-.06,8.57.03,12.85.03,1.36.52,2.71.8,4.07,1.31-.82,2.95-1.37,3.87-2.5,4.66-5.71,6.99-12.49,8.52-19.59.05-.25.04-.52.12-.76,1.25-3.67.9-6.62-2.42-9.43-3.02-2.56-4.16-6.44-3.84-10.51.37-4.67,4.15-7.15,8.6-5.58,4.35,1.53,6.74,4.8,7.89,9.13,1.5,5.61,1.99,5.97,7.75,5.98,5.42,0,10.84-.07,16.26.03,7.09.13,11.04,6.23,8.32,12.75-1.01,2.43-2.81,4.06-5.41,4.74-3.83.99-7.74,1.73-11.44,3.06-2.68.96-5.36,2.37-7.53,4.18-2.52,2.11-2.13,4.41.41,6.49,6.44,5.26,15.74,2.24,17.69-5.74.1-.41.26-.81.39-1.22h9.01c.32,6.64-4.31,13.84-11.03,16.27-7.72,2.78-15.28,2.18-22-2.95-7.77-5.93-7.12-17.43,1.66-21.75,5.14-2.53,11.07-3.46,16.64-5.12,1.04-.31,2.05-.7,3.08-1.06-.06-.33-.12-.66-.18-.99h-24.32c-.55,2.4-1.11,5.31-1.87,8.16-2.02,7.51-4.84,14.63-10.45,20.33-3.74,3.8-8.11,5.87-13.48,4.48-2-.52-3.8-1.78-6.04-2.87-5.65,3.67-12.2,3.93-18.83,1.65-6.78-2.34-10.95-7.42-13.21-13.69-3.73.71-7.19,1.3-10.61,2.06-.7.15-1.49.76-1.88,1.39-5.92,9.45-14.46,13.35-25.48,11.43-3.36-.58-6.39-1.91-7.42-5.51-1.01-3.53.55-6.41,3.12-8.7,5.15-4.59,11.56-5.76,18.15-6.36.34-.03.69-.02,1.03-.03,4.81-.09,5.12-.48,3.99-5.17-.82-3.43-2.87-6.14-5.8-7.87-1.35-.8-3.45-.67-5.15-.49-3.9.43-7.75,1.34-11.66,1.67-1.61.13-3.43-.46-4.92-1.2-2.89-1.44-3.18-3.65-.96-6.02,3.34-3.57,7.56-5.24,12.4-5.5.69-.04,1.38-.03,2.06-.04,4.72-.11,5.76-1.31,5.2-6-1.09-9.14-11.79-15.99-20.6-13.19-5.47,1.74-8.59,6.4-8.61,12.93-.03,13.54.02,27.08-.06,40.62-.04,8.19-6.15,12.63-14.13,10.46-3.98-1.09-6.3-3.69-7.08-7.65-.26-1.33-.32-2.72-.32-4.09-.01-15.34,0-30.68.02-46.02,0-5.55-1.17-6.89-6.9-7.62Zm117.9,44.49c-.07,0-.13-.01-.2-.02,0-.94.01-1.88,0-2.82-.07-5.05-3.21-8.98-8.13-10.17-6.75-1.64-14.37,3.44-15.57,10.39-1.26,7.29,3.69,14.27,10.77,15.16,5.94.75,10.79-1.78,12.4-6.75.59-1.82.5-3.86.73-5.79Zm-56.34,9.46c-4,.12-7.96.41-11.6,3.52,4.8.55,8.45-.66,11.6-3.52Z"/>
    <path class="cls-1" d="m315.11,62.86c-3.14,2.86-6.79,4.07-11.6,3.52,3.64-3.11,7.59-3.4,11.6-3.52Z"/>
  </g>
</svg>