<?xml version="1.0" encoding="UTF-8"?>
<svg id="Capa_2" data-name="Capa 2" xmlns="http://www.w3.org/2000/svg" viewBox="0 0 454.36 89.94">
  <defs>
    <style>
      .cls-1 {
        fill: #fff;
      }
    </style>
  </defs>
  <g id="Capa_1-2" data-name="Capa 1">
    <g>
      <path class="cls-1" d="m0,89.94V0h454.36v89.94H0Zm134.34-37.69c-1.47-3.1-2.43-5.94-4.03-8.36-6.21-9.42-18.56-13.77-30.02-10.66-10.94,2.97-18.22,9.85-20.63,20.98-.74,3.44-2.05,5.78-4.95,7.45-.96.56-1.88,1.22-2.88,1.7-9.84,4.73-19.58,5.7-28.96-1.08-1.64-1.19-2.97-2.8-4.85-4.61,2.68-.39,4.56-.56,6.38-.97,1.83-.42,3.75-.82,5.37-1.7,3.25-1.76,6.42-2.84,10.16-1.58,1.32.44,2.91.18,4.36.09,17.95-1.06,29.34-18.23,20.83-35.3-5.46-10.95-15.4-15.94-27.09-17.06C41.46-.44,28.6,6.53,19.57,20.22c-2.91,4.41-4.63,9.61-7.07,14.82-1.25,0-3.14-.06-5.02.01-4.34.16-6.83,2.59-7.08,6.89-.09,1.62.02,3.26-.09,4.89-.58,8.8,2.39,11.36,10.98,10.72,1.79-.13,2.64.36,3.26,2.22,5.47,16.54,21.74,28.52,39.21,29.32,11.77.53,22.62-2.22,32.67-8.4.45.35.87.64,1.26.97,8.99,7.74,19.11,9.48,30.31,5.76.85-.28,2-.12,2.87.21,5.07,1.92,10.07,1.78,15.08-.15.54-.21,1.14-.44,1.69-.4,4.15.31,8.29.92,12.44.98,4.16.06,6.77-2.82,6.88-7.03.05-1.89.01-3.77.01-5.66,0-2.03,0-4.07,0-6.1.65.29.84.58.95.9,4.19,11.92,13.01,18.11,25.25,19.12,11.25.93,20.55-3.25,26.96-12.83,3.15-4.71,2.56-8.19-1.77-11.87,5.59-6.62,5.86-11.16,1.14-18.66-7.66-12.15-22.44-16.57-36.19-10.84-.69.29-1.51.79-2.12.63-4.68-1.21-9.33-2.56-14.08-3.89v-4.56c3.9,0,7.67.04,11.43,0,4.82-.06,7.45-2.92,7.15-7.69-.62-10.03-9.03-18.05-18.96-18.62-12.79-.73-21.23,8.67-21.95,17.32-.49,5.79-.37,11.64-.43,17.46-.06,5.36-.01,10.73-.01,16.54Zm314.35,5.87c.35-.77.65-1.38.92-2,4.69-10.8-2.5-21.92-14.31-22.08-4.99-.07-9.98-.1-14.97.01-1.81.04-2.62-.37-3.19-2.29-1.76-5.88-5.47-10.24-11.33-12.47-7.52-2.87-15.71,1.12-17.43,8.36-1.63,6.85.24,12.9,4.54,18.22,1.29,1.59,1.96,2.87.78,4.83-4.35-11.57-12.59-17.92-25.01-18.33-12.38-.41-21.18,5.52-27.05,16.02-1.71-2.58-2.97-5.34-5-7.3-2.23-2.16-2.62-4.32-2.52-7.22.72-20.15-18.52-35.89-38.29-31.59-6,1.3-10.91,4.33-15.28,8.63-.31-.38-.52-.62-.71-.89-4.74-6.67-11.33-9.41-19.37-9.06-3.62.16-6.35,2.78-6.46,6.36-.1,3.26-.07,6.52,0,9.78.05,2.41,1.25,4.27,3.35,5.41,1.1.6,2.37.89,3.66,1.36,0,1.35,0,2.63,0,3.91,0,14.49-.13,28.99.01,43.48.12,12.75,10.41,20.43,22.77,17.18,4.83-1.27,8.27-4.35,10.75-8.94,2.15,4.35,5.25,7.29,9.67,8.62,7.25,2.18,14.39,1.91,21.4-1.07,5.04-2.15,9.02-5.54,12.29-9.88,1.65-2.19,4.49-2.26,5.89-.29,7.56,10.6,20.42,14.87,32.83,11.01,1.01-.31,2.36-.21,3.36.19,6.71,2.65,13.02,1.81,18.86-2.18,2.37-1.62,4.38-3.77,6.69-5.79,4.77,5.23,10.76,8.29,17.83,9.17,14.76,1.85,27.42-6.37,29.94-21.61.76-4.61-.45-7.06-4.62-9.57Z"/>
      <path d="m134.34,52.25c0-5.81-.05-11.17.01-16.54.07-5.82-.05-11.67.43-17.46.73-8.65,9.16-18.05,21.95-17.32,9.93.56,18.34,8.59,18.96,18.62.29,4.78-2.33,7.63-7.15,7.69-3.76.05-7.53,0-11.43,0v4.56c4.75,1.33,9.39,2.68,14.08,3.89.61.16,1.43-.35,2.12-.63,13.75-5.73,28.53-1.31,36.19,10.84,4.73,7.5,4.45,12.05-1.14,18.66,4.33,3.68,4.92,7.16,1.77,11.87-6.41,9.58-15.72,13.76-26.96,12.83-12.24-1.01-21.06-7.2-25.25-19.12-.11-.31-.3-.6-.95-.9,0,2.03,0,4.07,0,6.1,0,1.89.04,3.77-.01,5.66-.11,4.21-2.72,7.09-6.88,7.03-4.15-.06-8.29-.67-12.44-.98-.55-.04-1.15.19-1.69.4-5.01,1.94-10.02,2.07-15.08.15-.87-.33-2.02-.49-2.87-.21-11.2,3.72-21.32,1.98-30.31-5.76-.38-.33-.8-.62-1.26-.97-10.05,6.17-20.89,8.93-32.67,8.4-17.47-.79-33.73-12.78-39.21-29.32-.62-1.86-1.46-2.36-3.26-2.22-8.59.64-11.56-1.92-10.98-10.72.11-1.62,0-3.26.09-4.89.25-4.3,2.74-6.73,7.08-6.89,1.88-.07,3.77-.01,5.02-.01,2.44-5.21,4.16-10.4,7.07-14.82C28.6,6.53,41.46-.44,58.06,1.14c11.69,1.11,21.62,6.11,27.09,17.06,8.52,17.07-2.88,34.24-20.83,35.3-1.46.09-3.05.35-4.36-.09-3.74-1.26-6.91-.19-10.16,1.58-1.62.88-3.54,1.29-5.37,1.7-1.82.42-3.7.58-6.38.97,1.88,1.81,3.21,3.43,4.85,4.61,9.38,6.78,19.12,5.82,28.96,1.08,1-.48,1.91-1.14,2.88-1.7,2.89-1.67,4.2-4.01,4.95-7.45,2.41-11.13,9.68-18.01,20.63-20.98,11.46-3.11,23.81,1.24,30.02,10.66,1.6,2.43,2.56,5.27,4.03,8.36Zm-47.33,25.07c.24.22.51.43.74.68,8.11,8.53,19.37,10.96,30.23,6.63.79-.31,1.97-.15,2.8.2,4.13,1.71,8.36,2.12,12.61.77,2.37-.75,4.52-2.28,6.93-.14.37.32,1.16.22,1.76.22,2.15,0,4.3-.03,6.45-.05,4.35-.04,5.78-1.39,5.79-5.67.03-7.89,0-15.78,0-23.67,0-1.34,0-2.69,0-4.38,2.17.26,3.97.48,5.91.72-.13.93-.18,1.52-.3,2.1-3.42,16.58,5.7,29.59,22.45,32,9.98,1.44,21.04-3.85,25.97-12.42,1.98-3.44,1.37-5.83-2.01-7.73-1.29-.73-2.6-1.41-4.22-2.28.77-.35,1.07-.48,1.37-.62,7.02-3.18,8.45-7.19,5.07-14.18-5.62-11.65-19.26-17.38-31.87-12.85-3.72,1.33-6.72,1.44-10.4.13-3.72-1.33-7.83-1.56-11.6-2.24v-14.44c.73.77,1.07.96,1.15,1.24.79,2.88,2.85,3.56,5.55,3.42,2.23-.12,4.47,0,6.71-.02,3.74-.02,5.28-1.74,4.97-5.51-.85-10.3-10.91-17.51-21.54-15.43-8.69,1.7-14.45,8.74-14.52,18.09-.09,12.01-.05,24.01,0,36.02.02,3.83-2.36,6.1-5.21,9.09,0-3.85.08-6.9-.02-9.95-.19-5.99-2.24-11.29-6.69-15.38-7.86-7.22-17.12-8.55-26.9-5.06-9.65,3.44-15.01,10.73-16.68,20.78-.18,1.1-.54,2.47-1.31,3.14-8.36,7.3-18.04,10.67-29.09,8.37-7.8-1.62-13.55-6.24-17.19-13.75.88-.05,1.45-.1,2.03-.11,6.3-.06,12.27-1.3,17.72-4.68.7-.43,1.92-.29,2.82-.08,8.37,1.95,15.97.5,22.32-5.4,6.17-5.73,7.83-13.03,5.75-20.98-2.47-9.44-9.26-15.02-18.09-18.26C46.45-1.75,23.93,9.9,17.04,31.11c-.68,2.09-1.17,4.25-1.79,6.52-2.49,0-4.89-.04-7.29,0-3.36.06-4.93,1.55-5.03,4.85-.08,2.57-.08,5.15,0,7.72.09,3.29,1.66,4.74,5.05,4.77,2.57.02,5.14,0,7.64,0,8.53,30.98,43.28,40.91,71.39,22.34Z"/>
      <path d="m448.69,58.11c4.16,2.5,5.38,4.96,4.62,9.57-2.53,15.24-15.18,23.46-29.94,21.61-7.07-.88-13.06-3.94-17.83-9.17-2.31,2.02-4.32,4.17-6.69,5.79-5.84,3.99-12.15,4.84-18.86,2.18-1-.39-2.34-.5-3.36-.19-12.41,3.86-25.27-.41-32.83-11.01-1.4-1.97-4.24-1.9-5.89.29-3.27,4.34-7.25,7.73-12.29,9.88-7.01,2.99-14.15,3.25-21.4,1.07-4.42-1.33-7.52-4.27-9.67-8.62-2.48,4.59-5.92,7.67-10.75,8.94-12.36,3.24-22.64-4.43-22.77-17.18-.14-14.49-.02-28.99-.01-43.48,0-1.28,0-2.56,0-3.91-1.29-.47-2.56-.76-3.66-1.36-2.1-1.14-3.3-3-3.35-5.41-.07-3.26-.1-6.52,0-9.78.11-3.58,2.84-6.21,6.46-6.36,8.04-.35,14.63,2.39,19.37,9.06.19.27.41.51.71.89,4.37-4.3,9.28-7.33,15.28-8.63,19.77-4.29,39,11.45,38.29,31.59-.1,2.9.29,5.07,2.52,7.22,2.03,1.96,3.28,4.71,5,7.3,5.87-10.5,14.67-16.43,27.05-16.02,12.42.41,20.66,6.76,25.01,18.33,1.18-1.95.51-3.23-.78-4.83-4.3-5.32-6.16-11.37-4.54-18.22,1.72-7.24,9.91-11.23,17.43-8.36,5.85,2.23,9.57,6.59,11.33,12.47.57,1.91,1.39,2.33,3.19,2.29,4.99-.11,9.98-.08,14.97-.01,11.81.15,19,11.28,14.31,22.08-.27.62-.57,1.23-.92,2Zm-55.98,6.06c-.37-.06-.74-.12-1.12-.18,0-2.88.21-5.78-.04-8.64-.71-8.17-4.9-14.18-12.17-17.86-13.91-7.04-30.93-.15-36.27,14.48-.44,1.19-1.3,2.23-1.97,3.34-.24-.11-.47-.22-.71-.33-1.09-6.06-3.87-11.14-8.58-15.15-.45-.38-.7-1.36-.59-1.99,3.26-19.54-12.79-33.68-28.85-33.67-9.44,0-16.93,3.91-22.28,11.8-.23-.27-.46-.43-.55-.64-3.46-8.12-9.96-12.26-18.59-11.83-2.84.14-4.29,1.46-4.39,4.3-.11,3-.08,6,0,9,.07,2.47,1.62,3.94,3.94,3.89,2.71-.07,3.07,1.17,3.05,3.43-.08,13.21-.06,26.41-.06,39.62,0,3.08-.12,6.19.18,9.25.9,8.98,6.92,13.89,16.22,13.46,7.94-.36,13.42-6.4,13.48-14.95.05-7.2,0-14.41.01-21.61,0-.51.1-1.01.19-1.81,2.02,3.14,3.71,4.46,7.05,5.32,4.98,1.28,9.88.72,14.74-.75,4.16-1.26,6.72.38,7.58,4.63-2.88.45-5.8.73-8.63,1.38-5.99,1.36-11.51,3.67-15.23,8.88-5.09,7.14-2.34,15.44,5.91,18.14,10.37,3.4,22.69.1,29.17-8.32,2.18-2.83,4.54-4.29,7.95-4.72,1.44-.18,2.09.08,2.85,1.3,6.99,11.21,19.75,15.5,32.07,10.93.68-.25,1.67-.24,2.32.06,7.36,3.48,14.42,2.49,20.45-3.16,2.04-1.91,3.79-4.13,5.51-6.03,1.88,1.97,3.54,4.22,5.68,5.85,6.94,5.31,14.84,6.52,23.22,4.42,8.95-2.24,15.77-10.43,16.56-19.59.34-3.93-1.3-5.71-5.3-5.77-.71-.01-1.42-.09-2.24-.14.2-.37.24-.55.36-.66,4.55-4.34,5.96-10.19,3.61-15.69-2.4-5.62-7.02-7.63-12.86-7.6-5.33.03-10.67-.1-16,.02-2.01.04-2.89-.6-3.29-2.59-.99-4.84-3.6-8.7-7.89-11.25-3.6-2.15-7.46-2.71-11.31-.71-3.91,2.04-5.39,5.6-5.48,9.81-.11,5.05,1.66,9.46,5.17,13.03,1.56,1.58,1.87,3.14,1.31,5.06-1.38,4.75-2.8,9.48-4.21,14.22Zm-96.65,2.54c2.35-2.13,4.32-4.28,6.65-5.92,2.26-1.59,4.9-2.65,6.96-3.73-4.35-.6-8.96-1.24-13.61-1.89v11.54Z"/>
      <path class="cls-1" d="m87.01,77.32c-28.11,18.57-62.86,8.64-71.39-22.34-2.51,0-5.07.02-7.64,0-3.39-.03-4.96-1.48-5.05-4.77-.07-2.57-.07-5.15,0-7.72.1-3.3,1.66-4.78,5.03-4.85,2.4-.04,4.8,0,7.29,0,.62-2.27,1.11-4.43,1.79-6.52C23.93,9.9,46.45-1.75,66.49,5.61c8.83,3.24,15.62,8.82,18.09,18.26,2.08,7.95.42,15.25-5.75,20.98-6.35,5.89-13.95,7.35-22.32,5.4-.9-.21-2.13-.35-2.82.08-5.45,3.37-11.42,4.62-17.72,4.68-.57,0-1.14.06-2.03.11,3.64,7.51,9.4,12.13,17.19,13.75,11.05,2.3,20.73-1.06,29.09-8.37.77-.68,1.13-2.04,1.31-3.14,1.67-10.05,7.04-17.34,16.68-20.78,9.78-3.49,19.04-2.16,26.9,5.06,4.45,4.09,6.5,9.39,6.69,15.38.1,3.05.02,6.11.02,9.95,2.85-2.99,5.23-5.26,5.21-9.09-.06-12.01-.1-24.01,0-36.02.07-9.35,5.82-16.39,14.52-18.09,10.63-2.08,20.69,5.13,21.54,15.43.31,3.77-1.23,5.49-4.97,5.51-2.24.01-4.48-.1-6.71.02-2.7.14-4.76-.54-5.55-3.42-.07-.27-.42-.47-1.15-1.24v14.44c3.76.68,7.88.91,11.6,2.24,3.68,1.32,6.68,1.21,10.4-.13,12.61-4.52,26.25,1.21,31.87,12.85,3.38,7,1.94,11-5.07,14.18-.3.14-.6.27-1.37.62,1.62.87,2.93,1.56,4.22,2.28,3.37,1.9,3.99,4.29,2.01,7.73-4.93,8.57-15.99,13.85-25.97,12.42-16.75-2.41-25.87-15.41-22.45-32,.12-.57.17-1.16.3-2.1-1.93-.23-3.74-.45-5.91-.72,0,1.7,0,3.04,0,4.38,0,7.89.04,15.78,0,23.67-.02,4.28-1.45,5.63-5.79,5.67-2.15.02-4.3.05-6.45.05-.6,0-1.39.1-1.76-.22-2.41-2.14-4.57-.61-6.93.14-4.24,1.35-8.47.94-12.61-.77-.83-.34-2.01-.51-2.8-.2-10.87,4.33-22.13,1.9-30.23-6.63-.23-.25-.5-.46-.74-.68Zm78.59-26.77c-6.22,14.88,1.09,27.3,12.4,31.05,10.58,3.51,24.11-1.81,27.17-10.97-2.6-1.36-5.23-2.74-7.82-4.09-7.57,8.44-15.84,9.7-21.15,3.16,1.14-.46,2.23-.91,3.32-1.33,7.78-2.98,15.58-5.9,23.34-8.94,3.24-1.27,3.98-3.03,2.83-6.3-.39-1.12-.94-2.21-1.56-3.22-6.56-10.55-19.28-13.69-30.47-7.62-.81.44-2.08.92-2.75.59-6.51-3.17-13.32-4.37-20.72-3.45,0-6.12-.01-12.02,0-17.91,0-2.57,1.34-4.27,3.78-4.88,2.48-.62,4.31.48,5.61,2.62.31.51.88,1.18,1.36,1.2,2.62.12,5.24.06,7.85.06.1-8.54-8.39-14.64-16.89-12.54-6.59,1.63-10.61,6.61-10.67,13.65-.1,11.58-.32,23.17.06,34.73.23,7-3.76,11.07-8.54,14.86-.83.66-2.64.95-3.5.49-.85-.46-1.44-2.07-1.49-3.2-.17-3.68.15-7.39-.11-11.06-.18-2.51-.6-5.17-1.63-7.44-3.73-8.26-13.08-12.54-22.68-10.69-9.64,1.86-17.22,9.89-17.59,18.92-.09,2.09-.64,3.75-2.3,4.85-4.28,2.81-8.37,6.15-13.04,8.08-13.53,5.58-27.67,2.12-36.4-8.24-2.93-3.47-4.64-7.47-5.54-12.18,3.02,0,5.76.04,8.5,0,5.53-.11,10.79-1.22,15.27-4.66,1.33-1.02,2.3-1.14,3.88-.49,10.1,4.15,22.45-1.99,24.76-12.19,1.8-7.95-2-16.12-9.78-21-14.61-9.18-34.14-5.01-44.69,9.47-4.3,5.9-6.58,12.52-7.38,19.97H7.29v8.9c3.42,0,6.67.07,9.92-.03,1.59-.05,2.16.48,2.48,2.09,2.54,12.52,9.79,21.55,21.54,26.36,15.83,6.49,30.65,3.36,44.37-6.24.75-.53,1.46-1.12,2.15-1.66.32.28.49.37.56.51,5.79,10.77,21.49,13.64,30.18,7.85.47-.32,1.61-.07,2.21.29,5.29,3.18,11.18,2.94,16.15-.81,1.39-1.05,2.68-2.24,4.4-3.69v5.73h8.9c0-1.19,0-2.2,0-3.21,0-9.09-.04-18.18.04-27.28,0-.8.62-2.2,1.14-2.3,4.92-.89,9.72-.55,14.28,2.15Z"/>
      <path class="cls-1" d="m392.71,64.18c1.4-4.74,2.82-9.48,4.21-14.22.56-1.92.24-3.48-1.31-5.06-3.52-3.56-5.29-7.97-5.17-13.03.09-4.21,1.57-7.77,5.48-9.81,3.85-2,7.7-1.44,11.31.71,4.28,2.56,6.9,6.41,7.89,11.25.4,1.99,1.28,2.63,3.29,2.59,5.33-.12,10.67,0,16-.02,5.83-.03,10.46,1.98,12.86,7.6,2.35,5.5.94,11.36-3.61,15.69-.11.11-.16.28-.36.66.82.05,1.53.13,2.24.14,3.99.06,5.64,1.84,5.3,5.77-.79,9.16-7.6,17.34-16.56,19.59-8.38,2.1-16.27.89-23.22-4.42-2.13-1.63-3.79-3.88-5.68-5.85-1.73,1.91-3.47,4.12-5.51,6.03-6.02,5.65-13.09,6.64-20.45,3.16-.65-.31-1.64-.32-2.32-.06-12.32,4.56-25.08.27-32.07-10.93-.76-1.22-1.41-1.48-2.85-1.3-3.42.43-5.77,1.89-7.95,4.72-6.48,8.43-18.8,11.72-29.17,8.32-8.25-2.71-10.99-11-5.91-18.14,3.71-5.21,9.24-7.52,15.23-8.88,2.84-.64,5.76-.93,8.63-1.38-.86-4.25-3.41-5.89-7.58-4.63-4.86,1.47-9.77,2.03-14.74.75-3.34-.86-5.03-2.18-7.05-5.32-.09.8-.19,1.31-.19,1.81,0,7.2.04,14.41-.01,21.61-.06,8.54-5.55,14.58-13.48,14.95-9.31.42-15.32-4.48-16.22-13.46-.31-3.06-.18-6.17-.18-9.25,0-13.21-.03-26.41.06-39.62.01-2.26-.34-3.5-3.05-3.43-2.32.06-3.87-1.42-3.94-3.89-.09-3-.11-6,0-9,.1-2.84,1.55-4.16,4.39-4.3,8.63-.43,15.12,3.7,18.59,11.83.09.22.31.37.55.64,5.35-7.9,12.84-11.79,22.28-11.8,16.06-.01,32.11,14.13,28.85,33.67-.1.63.14,1.6.59,1.99,4.71,4.01,7.49,9.09,8.58,15.15.24.11.47.22.71.33.67-1.11,1.54-2.15,1.97-3.34,5.34-14.63,22.37-21.52,36.27-14.48,7.27,3.68,11.46,9.7,12.17,17.86.25,2.86.04,5.76.04,8.64.37.06.74.12,1.12.18Zm44.78.77c-.13.41-.26.72-.34,1.05-1.99,8.11-10.96,11.2-17.59,6.05-2.65-2.06-3.13-4.35-.68-6.47,2.14-1.84,4.79-3.31,7.46-4.28,3.78-1.37,7.86-1.91,11.66-3.22,1.74-.6,3.59-1.88,4.6-3.39,4.21-6.24.2-13.8-7.35-14-5.5-.15-11.02-.04-16.52-.04-5.63,0-6.28-.46-7.64-5.8-1.08-4.24-3.35-7.5-7.51-9.18-4.72-1.9-8.78.71-9.05,5.77-.2,3.79.76,7.5,3.57,9.84,3.76,3.13,3.8,6.58,2.58,10.62-.34,1.15-.53,2.34-.86,3.49-1.78,6.32-4.1,12.39-8.76,17.23-.67.7-1.88.88-2.84,1.29-.27-.94-.76-1.88-.78-2.83-.06-4.63.06-9.26,0-13.89-.09-7.84-4.24-13.83-11.47-16.72-11.56-4.63-24.01.79-28.86,12.55-1.99,4.82-5.43,7.23-10.3,7.1-.05-.66-.09-1.33-.15-1.99-.5-5.67-2.36-10.84-6.88-14.46-2.58-2.07-3.3-3.62-2.68-7.21,2.98-17.12-14.08-31.98-30.96-27.41-9.41,2.55-15.63,10.43-15.69,20.19-.08,13.64-.02,27.27-.03,40.91,0,1.46.15,3.26-1.91,3.28-2,.02-2.01-1.74-2.06-3.23-.02-.6-.01-1.2-.01-1.8,0-12.69,0-25.39,0-38.08,0-3.34.1-6.7-.08-10.03-.41-7.82-7.82-13.68-15.69-12.32v8.49c5.73.65,7.04,2.11,7.04,7.43-.02,15.27-.04,30.53-.02,45.8,0,1.62.04,3.28.38,4.86.81,3.73,3.07,6.22,6.83,7.3,8.06,2.31,14.27-2.17,14.32-10.49.07-13.55.03-27.1.06-40.65.02-6.68,3.44-11.52,9.16-13.06,8.64-2.32,18.8,4.37,20.04,13.2.67,4.76-.46,6.08-5.25,6.19-.69.02-1.38,0-2.06.04-4.93.28-9.22,2.03-12.55,5.74-1.91,2.12-1.68,4.17.81,5.53,1.52.84,3.43,1.55,5.1,1.44,3.91-.26,7.77-1.18,11.67-1.59,1.79-.19,3.98-.36,5.38.47,3,1.77,5.07,4.58,5.81,8.15.94,4.53.74,4.77-3.86,4.85-.43,0-.86,0-1.29.04-6.67.62-13.17,1.81-18.31,6.58-2.46,2.29-3.87,5.13-2.88,8.55.98,3.38,3.82,4.73,6.97,5.38,10.72,2.24,20.14-1.9,25.82-11.21.39-.65,1.11-1.38,1.79-1.53,3.5-.77,7.04-1.37,10.83-2.08,2.26,6.34,6.46,11.4,13.25,13.73,6.63,2.27,13.18,1.98,19.19-1.93,5.94,5.69,13.92,3.78,18.42-.67,3.88-3.83,6.77-8.25,8.53-13.31,1.85-5.31,3.27-10.77,4.78-15.86h24.04c.06.31.11.61.17.92-.88.34-1.74.79-2.65,1.01-1.92.45-3.94.59-5.8,1.2-4.14,1.36-8.52,2.39-12.23,4.54-7.54,4.39-8.14,15.05-1.46,20.63,6.84,5.71,14.7,6.46,22.81,3.53,6.73-2.43,11.48-9.93,10.91-16.27h-8.95Zm-123.13-32.17c-.18-6.24-6.23-11.56-12.58-11.38-4.18.12-7.53,2.5-7.92,6.62-.46,4.84-.11,9.76-.11,14.75,4.72-7.7,12.11-9.86,20.61-9.99Zm118.8,30.88c-4.17,1.37-8.34,1.68-11.63,4.87,3.09,1.89,5.96,2.24,8.88.94,2.26-1,2.53-3.18,2.75-5.81Z"/>
      <path class="cls-1" d="m296.05,66.72v-11.54c4.65.65,9.26,1.29,13.61,1.89-2.06,1.08-4.7,2.14-6.96,3.73-2.33,1.64-4.3,3.79-6.65,5.92Z"/>
      <path d="m165.6,50.55c-4.56-2.7-9.35-3.04-14.28-2.15-.52.09-1.13,1.5-1.14,2.3-.08,9.09-.04,18.18-.04,27.28,0,1.01,0,2.02,0,3.21h-8.9v-5.73c-1.72,1.45-3.01,2.63-4.4,3.69-4.97,3.76-10.86,3.99-16.15.81-.6-.36-1.73-.6-2.21-.29-8.69,5.79-24.39,2.92-30.18-7.85-.07-.14-.24-.23-.56-.51-.69.54-1.39,1.13-2.15,1.66-13.73,9.6-28.54,12.72-44.37,6.24-11.75-4.81-19-13.84-21.54-26.36-.33-1.61-.89-2.14-2.48-2.09-3.25.1-6.5.03-9.92.03v-8.9h11.72c.8-7.45,3.08-14.07,7.38-19.97,10.55-14.47,30.08-18.65,44.69-9.47,7.77,4.88,11.58,13.05,9.78,21-2.31,10.2-14.67,16.34-24.76,12.19-1.58-.65-2.55-.53-3.88.49-4.47,3.44-9.74,4.55-15.27,4.66-2.74.05-5.48,0-8.5,0,.9,4.7,2.62,8.7,5.54,12.18,8.72,10.35,22.87,13.81,36.4,8.24,4.67-1.92,8.76-5.27,13.04-8.08,1.67-1.09,2.22-2.75,2.3-4.85.37-9.03,7.95-17.06,17.59-18.92,9.6-1.85,18.96,2.43,22.68,10.69,1.02,2.27,1.45,4.92,1.63,7.44.26,3.67-.06,7.38.11,11.06.05,1.14.64,2.74,1.49,3.2.86.46,2.67.17,3.5-.49,4.78-3.79,8.77-7.85,8.54-14.86-.39-11.57-.17-23.16-.06-34.73.06-7.04,4.08-12.02,10.67-13.65,8.5-2.1,16.99,4,16.89,12.54-2.6,0-5.23.06-7.85-.06-.48-.02-1.05-.7-1.36-1.2-1.3-2.15-3.13-3.24-5.61-2.62-2.44.61-3.77,2.31-3.78,4.88-.02,5.9,0,11.79,0,17.91,7.4-.92,14.22.29,20.72,3.45.67.33,1.94-.15,2.75-.59,11.18-6.07,23.9-2.93,30.47,7.62.63,1.01,1.17,2.1,1.56,3.22,1.15,3.27.41,5.03-2.83,6.3-7.76,3.03-15.56,5.96-23.34,8.94-1.1.42-2.18.87-3.32,1.33,5.31,6.54,13.58,5.28,21.15-3.16,2.59,1.35,5.22,2.73,7.82,4.09-3.06,9.16-16.59,14.48-27.17,10.97-11.31-3.75-18.62-16.17-12.4-31.05Zm-112.86-17.45c1.82,1.46,3.27,2.96,5.02,3.97,4.08,2.36,9.8,1.08,12.81-2.64,2.74-3.39,2.31-7.73-1.24-11.6-3.8-4.15-8.68-6.12-14.2-6.31-13.88-.48-25.97,10.79-26.99,25.15,9.47.6,18.74.82,24.6-8.56Zm66.13,27.99c-.11-1.79,0-3.63-.39-5.36-1.61-7.09-10.12-10.2-17.3-6.34-4.9,2.63-7,6.91-6.67,12.34.33,5.43,3.36,9.1,8.27,11.07,4.64,1.87,9.08,1.34,12.96-2.09,2.96-2.61,3.35-6,3.12-9.63Zm53.48.58c7.49-2.95,14.91-5.88,22.45-8.86-3.83-4.61-9.53-5.89-14.92-3.6-4.92,2.09-8.12,7.27-7.53,12.46Z"/>
      <path d="m437.49,64.95h8.95c.57,6.34-4.18,13.84-10.91,16.27-8.11,2.93-15.97,2.18-22.81-3.53-6.68-5.58-6.08-16.24,1.46-20.63,3.7-2.16,8.09-3.18,12.23-4.54,1.86-.61,3.88-.75,5.8-1.2.91-.21,1.77-.66,2.65-1.01-.06-.31-.11-.61-.17-.92h-24.04c-1.52,5.09-2.93,10.55-4.78,15.86-1.76,5.06-4.66,9.49-8.53,13.31-4.5,4.44-12.48,6.36-18.42.67-6.01,3.91-12.56,4.2-19.19,1.93-6.79-2.32-10.99-7.39-13.25-13.73-3.79.71-7.33,1.3-10.83,2.08-.68.15-1.4.88-1.79,1.53-5.68,9.31-15.1,13.46-25.82,11.21-3.15-.66-5.98-2-6.97-5.38-.99-3.42.41-6.26,2.88-8.55,5.14-4.78,11.64-5.96,18.31-6.58.43-.04.86-.03,1.29-.04,4.6-.08,4.79-.32,3.86-4.85-.74-3.57-2.81-6.37-5.81-8.15-1.41-.83-3.6-.66-5.38-.47-3.9.4-7.76,1.32-11.67,1.59-1.67.11-3.58-.6-5.1-1.44-2.49-1.37-2.71-3.41-.81-5.53,3.33-3.71,7.61-5.46,12.55-5.74.69-.04,1.38-.03,2.06-.04,4.79-.11,5.92-1.44,5.25-6.19-1.24-8.83-11.39-15.52-20.04-13.2-5.72,1.54-9.14,6.38-9.16,13.06-.03,13.55.01,27.1-.06,40.65-.04,8.31-6.26,12.8-14.32,10.49-3.76-1.08-6.02-3.57-6.83-7.3-.34-1.57-.38-3.23-.38-4.86-.02-15.27,0-30.53.02-45.8,0-5.32-1.3-6.77-7.04-7.43V7.99c7.86-1.36,15.27,4.5,15.69,12.32.18,3.34.07,6.69.08,10.03,0,12.69,0,25.39,0,38.08,0,.6,0,1.2.01,1.8.05,1.49.06,3.25,2.06,3.23,2.06-.02,1.91-1.82,1.91-3.28,0-13.64-.05-27.27.03-40.91.06-9.76,6.27-17.64,15.69-20.19,16.88-4.57,33.94,10.29,30.96,27.41-.62,3.59.1,5.14,2.68,7.21,4.52,3.62,6.38,8.79,6.88,14.46.06.67.1,1.34.15,1.99,4.86.13,8.31-2.28,10.3-7.1,4.85-11.76,17.3-17.18,28.86-12.55,7.23,2.89,11.38,8.88,11.47,16.72.05,4.63-.07,9.26,0,13.89.01.95.5,1.88.78,2.83.96-.42,2.17-.6,2.84-1.29,4.66-4.84,6.97-10.91,8.76-17.23.33-1.15.51-2.35.86-3.49,1.21-4.05,1.18-7.49-2.58-10.62-2.82-2.35-3.78-6.06-3.57-9.84.27-5.06,4.32-7.67,9.05-5.77,4.16,1.68,6.43,4.94,7.51,9.18,1.36,5.34,2.01,5.79,7.64,5.8,5.51,0,11.02-.11,16.52.04,7.55.2,11.56,7.76,7.35,14-1.01,1.5-2.86,2.79-4.6,3.39-3.8,1.31-7.88,1.86-11.66,3.22-2.67.96-5.32,2.44-7.46,4.28-2.45,2.11-1.97,4.41.68,6.47,6.62,5.15,15.59,2.06,17.59-6.05.08-.33.21-.64.34-1.05Zm-58.74-4.03l-.19-.02c0-.86,0-1.71,0-2.57-.05-5.14-3.04-9.01-7.96-10.31-6.69-1.76-14.39,3.23-15.72,10.19-1.38,7.23,3.53,14.35,10.58,15.33,6.02.84,11.01-1.75,12.6-6.82.57-1.83.48-3.86.69-5.81Zm-67.37,12.89c4.26.68,7.95-.41,11.6-3.54-4.58.18-8.43.73-11.6,3.54Z"/>
      <path d="m314.36,32.78c-8.5.14-15.9,2.3-20.61,9.99,0-4.98-.35-9.9.11-14.75.39-4.12,3.74-6.5,7.92-6.62,6.35-.18,12.41,5.14,12.58,11.38Zm-3.41-3.16c-2.21-4.34-7.56-6.81-11.47-5.04-3.17,1.43-4.53,6.37-3.15,10.29,4.84-1.74,9.69-3.48,14.62-5.25Z"/>
      <path d="m433.16,63.66c-.22,2.63-.49,4.81-2.75,5.81-2.92,1.3-5.8.95-8.88-.94,3.29-3.2,7.46-3.51,11.63-4.87Z"/>
      <path class="cls-1" d="m52.74,33.1c-5.86,9.38-15.13,9.17-24.6,8.56,1.02-14.36,13.11-25.63,26.99-25.15,5.52.19,10.4,2.17,14.2,6.31,3.55,3.87,3.98,8.21,1.24,11.6-3.01,3.73-8.73,5.01-12.81,2.64-1.74-1.01-3.2-2.51-5.02-3.97Zm-19.54,4.39c6.48.64,12.09-.56,15.93-6.47,2.08-3.19,5.15-3.19,7.69-.24.72.84,1.44,1.73,2.33,2.38,2.36,1.73,5.94,1.17,7.92-1.12,1.74-2.01,1.56-4.17-.98-6.51-1.55-1.43-3.37-2.71-5.3-3.54-10.92-4.69-25.41,3.45-27.6,15.5Z"/>
      <path class="cls-1" d="m118.87,61.09c.22,3.63-.16,7.02-3.12,9.63-3.89,3.43-8.32,3.95-12.96,2.09-4.92-1.98-7.95-5.65-8.27-11.07-.33-5.42,1.78-9.7,6.67-12.34,7.18-3.86,15.69-.76,17.3,6.34.39,1.73.27,3.57.39,5.36Zm-4.26-.06c0-1.03,0-2.06,0-3.08-.02-2.5-1.32-4.21-3.48-5.26-3.34-1.64-7.82-.61-10.33,2.27-2.69,3.1-3.02,7.01-.87,10.45,2.14,3.42,6.15,4.98,10.07,3.93,3.51-.95,4.62-2.94,4.6-8.3Z"/>
      <path class="cls-1" d="m172.35,61.66c-.59-5.19,2.61-10.37,7.53-12.46,5.39-2.29,11.09-1,14.92,3.6-7.54,2.97-14.96,5.9-22.45,8.86Z"/>
      <path class="cls-1" d="m378.75,60.92c-.21,1.94-.11,3.98-.69,5.81-1.6,5.07-6.59,7.66-12.6,6.82-7.04-.98-11.95-8.1-10.58-15.33,1.32-6.95,9.02-11.95,15.72-10.19,4.93,1.29,7.92,5.16,7.96,10.31,0,.86,0,1.71,0,2.57l.19.02Zm-4.3-.29h-.01c0-.6-.06-1.2,0-1.79.5-4.42-3.37-7.32-7.56-6.88-3.81.4-7.03,3.13-7.84,7.06-.69,3.35.2,6.35,2.88,8.54,2.64,2.15,5.73,2.72,8.93,1.35,3.31-1.42,3.83-4.31,3.6-7.5-.02-.26,0-.51,0-.77Z"/>
      <path class="cls-1" d="m311.38,73.81c3.17-2.81,7.02-3.36,11.6-3.54-3.64,3.13-7.33,4.22-11.6,3.54Z"/>
      <path class="cls-1" d="m310.95,29.62c-4.93,1.77-9.77,3.51-14.62,5.25-1.39-3.93-.02-8.86,3.15-10.29,3.91-1.76,9.26.71,11.47,5.04Z"/>
      <path d="m33.19,37.49c2.19-12.05,16.67-20.2,27.6-15.5,1.93.83,3.75,2.12,5.3,3.54,2.54,2.34,2.72,4.5.98,6.51-1.98,2.29-5.56,2.85-7.92,1.12-.88-.65-1.6-1.54-2.33-2.38-2.54-2.94-5.61-2.95-7.69.24-3.84,5.91-9.46,7.1-15.93,6.47Zm3.98-2.69c4.02.3,7.21-1.44,9.78-5.21,3.07-4.52,8.12-4.83,11.68-.72.5.58.93,1.25,1.51,1.75,1.54,1.31,3.7,1.21,4.83-.22,1.42-1.78-.47-2.52-1.23-3.59-.19-.27-.53-.43-.81-.63-8.68-6.18-22.18-1.76-25.76,8.62Z"/>
      <path d="m114.61,61.03c.02,5.36-1.09,7.36-4.6,8.3-3.92,1.06-7.94-.51-10.07-3.93-2.15-3.44-1.83-7.35.87-10.45,2.51-2.89,6.99-3.91,10.33-2.27,2.16,1.06,3.46,2.77,3.48,5.26,0,1.03,0,2.06,0,3.08Zm-2.74-.17c-.09-4.81-.77-5.99-3.65-6.31-2.42-.27-5.32,1.3-6.41,3.47-1.1,2.19-.66,4.99,1.07,6.9,1.69,1.86,4.65,2.67,6.79,1.81,2.71-1.09,2.43-3.37,2.22-5.62,0-.08-.02-.17-.03-.25Z"/>
      <path d="m374.45,60.63c0,.26-.02.51,0,.77.23,3.19-.29,6.08-3.6,7.5-3.2,1.37-6.29.8-8.93-1.35-2.68-2.18-3.57-5.19-2.88-8.54.81-3.92,4.04-6.66,7.84-7.06,4.18-.44,8.06,2.46,7.56,6.88-.07.59,0,1.2,0,1.79h.01Zm-2.65.08c0-.6,0-1.2,0-1.8-.03-3.12-1.84-4.74-4.88-4.36-3.85.48-6.48,4.89-5.06,8.5,1.08,2.77,3.98,4.45,6.78,3.93,2.51-.47,3.17-1.61,3.17-5.51,0-.26,0-.51,0-.77Z"/>
      <path class="cls-1" d="m37.17,34.8c3.58-10.37,17.08-14.8,25.76-8.62.28.2.62.36.81.63.77,1.07,2.65,1.81,1.23,3.59-1.13,1.43-3.29,1.53-4.83.22-.58-.49-1-1.16-1.51-1.75-3.56-4.11-8.61-3.79-11.68.72-2.56,3.78-5.76,5.51-9.78,5.21Z"/>
      <path class="cls-1" d="m111.87,60.86c.01.08.02.17.03.25.21,2.25.48,4.54-2.22,5.62-2.14.86-5.1.05-6.79-1.81-1.74-1.91-2.17-4.71-1.07-6.9,1.09-2.17,3.99-3.74,6.41-3.47,2.88.32,3.56,1.5,3.65,6.31Z"/>
      <path class="cls-1" d="m371.79,60.71c0,.26,0,.51,0,.77,0,3.9-.66,5.04-3.17,5.51-2.8.52-5.69-1.16-6.78-3.93-1.41-3.61,1.21-8.03,5.06-8.5,3.05-.38,4.86,1.24,4.88,4.36,0,.6,0,1.2,0,1.8Z"/>
    </g>
  </g>
</svg>